# AST/ASF file generated using VICON BodyLanguage
# -----------------------------------------------
:version 1.10
:name VICON
:units
  mass 1.0
  length 0.45
  angle deg
:documentation
   .ast/.asf automatically generated from VICON data using
   VICON BodyBuilder and BodyLanguage model FoxedUp or BRILLIANT.MOD
:root
   order TX TY TZ RX RY RZ
   axis XYZ
   position 0 0 0  
   orientation 0 0 0 
:bonedata
  begin
     id 1 
     name lhipjoint
     direction 0.677091 -0.635792 0.370561 
     length 2.74323 
     axis 0 0 0  XYZ
  end
  begin
     id 2 
     name lfemur
     direction 0.34202 -0.939693 0  
     length 7.44995  
     axis 0 0 20  XYZ
    dof rx ry rz
    limits (-160.0 20.0)
           (-70.0 70.0)
           (-60.0 70.0)
  end
  begin
     id 3 
     name ltibia
     direction 0.34202 -0.939693 0   
     length 7.34467   
     axis 0 0 20   XYZ
    dof rx
    limits (-10.0 170.0)
  end
  begin
     id 4 
     name lfoot
     direction 0.101953 -0.280114 0.954537   
     length 1.72105   
     axis -90 7.62852e-016 20   XYZ
    dof rx rz
    limits (-45.0 90.0)
           (-70.0 20.0)
  end
  begin
     id 5 
     name ltoes
     direction 1.53537e-011 -4.21915e-011 1   
     length 0.865872   
     axis -90 7.62852e-016 20   XYZ
    dof rx
    limits (-90.0 20.0)
  end
  begin
     id 6 
     name rhipjoint
     direction -0.695735 -0.620586 0.361699   
     length 2.81045  
     axis 0 0 0  XYZ 
  end
  begin
     id 7 
     name rfemur
     direction -0.34202 -0.939693 0   
     length 7.29387   
     axis 0 0 -20   XYZ
    dof rx ry rz
    limits (-160.0 20.0)
           (-70.0 70.0)
           (-70.0 60.0)
  end
  begin
     id 8 
     name rtibia
     direction -0.34202 -0.939693 0   
     length 7.44935   
     axis 0 0 -20   XYZ
    dof rx
    limits (-10.0 170.0)
 end
 begin
     id 9 
     name rfoot
     direction -0.104163 -0.286184 0.952496   
     length 1.77731  
     axis -90 -7.62852e-016 -20   XYZ
    dof rx rz
    limits (-45.0 90.0)
           (-20.0 70.0)
  end
  begin
     id 10 
     name rtoes
     direction -1.5355e-011 -4.21888e-011 1   
     length 0.892424   
     axis -90 -7.62852e-016 -20   XYZ
    dof rx
    limits (-90.0 20.0)
  end
  begin
     id 11 
     name lowerback
     direction 0.0100202 0.997226 -0.0737589   
     length 2.16892   
     axis 0 0 0   XYZ
    dof rx ry rz
    limits (-20.0 45.0)
           (-30.0 30.0)
           (-30.0 30.0)
  end
  begin
     id 12 
     name upperback
     direction 0.00432398 0.999988 -0.00215019   
     length 2.17326   
     axis 0 0 0   XYZ
    dof rx ry rz
    limits (-20.0 45.0)
           (-30.0 30.0)
           (-30.0 30.0)
  end
  begin
     id 13 
     name thorax
     direction -0.00195047 0.999485 0.0320434   
     length 2.18139   
     axis 0 0 0   XYZ
    dof rx ry rz
    limits (-20.0 45.0)
           (-30.0 30.0)
           (-30.0 30.0)
  end
  begin
     id 14 
     name lowerneck
     direction 0.00782762 0.986241 0.165128   
     length 1.88415   
     axis 0 0 0   XYZ
    dof rx ry rz
    limits (-20.0 45.0)
           (-30.0 30.0)
           (-30.0 30.0)
  end
  begin
     id 15 
     name upperneck
     direction 0.00988667 0.981098 -0.193258   
     length 1.9242   
     axis 0 0 0   XYZ
    dof rx ry rz
    limits (-20.0 45.0)
           (-30.0 30.0)
           (-30.0 30.0)
  end
  begin
     id 16
     name head
     direction 0.00252199 0.996513 -0.0833958  
     length 1.93887  
     axis 0 0 0   XYZ
    dof rx ry rz
    limits (-20.0 45.0)
           (-30.0 30.0)
           (-30.0 30.0)
  end
  begin
     id 17 
     name lclavicle
     direction 0.929492 0.368193 -0.0218667  
     length 3.5955  
     axis 0 0 0   XYZ
    dof ry rz
    limits (-20.0 10.0)
           (0.0 20.0)
  end
  begin
     id 18 
     name lhumerus
     direction 1 -4.48972e-011 1.41911e-027   
     length 5.2795   
     axis 180 -30 -90   XYZ
    dof rx ry rz
    limits (-60.0 90.0)
           (-90.0 90.0)
           (-90.0 90.0)
  end
  begin
     id 19
     name lradius
     direction 1 -4.48963e-011 7.05772e-027   
     length 3.53504   
     axis 180 -30 -90   XYZ
    dof rx
    limits (-10.0 170.0)
  end
  begin
     id 20
     name lwrist
     direction 1 -4.48957e-011 9.54866e-027   
     length 1.76752   
     axis -7.69462e-015 90 90   XYZ
    dof ry
    limits (-180.0 0.0)
 end
  begin
     id 21 
     name lhand
     direction 1 -4.48979e-011 1.90973e-026   
     length 0.667948   
     axis -1.21857e-014 90 90   XYZ
    dof rx rz
    limits (-90.0 90.0)
           (-45.0 45.0)
  end
  begin
     id 22 
     name lfingers
     direction 1 -4.48987e-011 3.81946e-026   
     length 0.538517   
     axis -2.43714e-014 90 90   XYZ
    dof rx
    limits (0.0 90.0)
  end
  begin
     id 23
     name lthumb
     direction 0.707107 -6.34962e-011 0.707107   
     length 0.773206   
     axis -90 45 2.85299e-015   XYZ
    dof rx rz
    limits (-45.0 45.0)
           (-45.0 45.0)
  end
  begin
     id 24 
     name rclavicle
     direction -0.898763 0.414256 -0.143584   
     length 3.5176  
     axis 0 0 0   XYZ 
    dof ry rz
    limits (-10.0 20.0)
           (-20.0 0.0)
  end
  begin
     id 25 
     name rhumerus
     direction -1 -4.48971e-011 1.129e-027  
     length 5.25035   
     axis 180 30 90   XYZ
    dof rx ry rz
    limits (-90.0 60.0)
           (-90.0 90.0)
           (-90.0 90.0)
  end
  begin
     id 26 
     name rradius
     direction -1 -4.48955e-011 6.34664e-027   
     length 3.58884   
     axis 180 30 90   XYZ
    dof rx
    limits (-10.0 170.0)
  end
  begin
     id 27 
     name rwrist
     direction -1 -4.48966e-011 9.54866e-027   
     length 1.79442   
     axis -7.69462e-015 -90 -90   XYZ
    dof ry
    limits (-180.0 0.0)
  end
  begin
     id 28
     name rhand
     direction -1 -4.48973e-011 1.90973e-026   
     length 0.779235   
     axis -1.21857e-014 -90 -90   XYZ
    dof rx rz
    limits (-90.0 90.0)
           (-45.0 45.0)
  end
  begin
     id 29
     name rfingers
     direction -1 -4.48984e-011 3.81946e-026   
     length 0.62824   
     axis -2.43714e-014 -90 -90   XYZ
    dof rx
    limits (0.0 90.0)
  end
  begin
     id 30
     name rthumb
     direction -0.707107 -6.34968e-011 0.707107   
     length 0.90203   
     axis -90 -45 -2.85299e-015   XYZ
    dof rx rz
    limits (-45.0 45.0)
           (-45.0 45.0)
  end
:hierarchy
  begin
    root lhipjoint rhipjoint lowerback
    lhipjoint lfemur
    lfemur ltibia
    ltibia lfoot
    lfoot ltoes
    rhipjoint rfemur
    rfemur rtibia
    rtibia rfoot
    rfoot rtoes
    lowerback upperback
    upperback thorax
    thorax lowerneck lclavicle rclavicle
    lowerneck upperneck
    upperneck head
    lclavicle lhumerus
    lhumerus lradius
    lradius lwrist
    lwrist lhand lthumb
    lhand lfingers
    rclavicle rhumerus
    rhumerus rradius
    rradius rwrist
    rwrist rhand rthumb
    rhand rfingers
  end

#!OML:ASF I:\Random Stuff\random\construction\7_22_03\Session 2\subj1.ASF
:FULLY-SPECIFIED
:DEGREES
207
root 4.31727 18.0828 -12.8306 34.9385 -7.27665 -8.63983
lowerback 34.9025 -0.610252 -2.1394
upperback 10.7885 -1.99124 -4.66937
thorax -5.87887 -0.906743 -3.06448
lowerneck -11.7543 -6.0673 -10.2709
upperneck 21.7513 -8.54164 10.3195
head 9.70575 -3.74785 4.27568
rclavicle 3.18055e-014 8.74653e-015
rhumerus -19.6976 12.0208 -63.9104
rradius 116.27
rwrist 4.58235
rhand -38.6805 15.5895
rfingers 7.12502
rthumb -11.6956 -14.064
lclavicle 3.18055e-014 8.74653e-015
lhumerus 7.30621 -44.9026 82.26
lradius 101.773
lwrist 16.8911
lhand -18.2088 60.7515
lfingers 7.12502
lthumb -171.931 -270.577
rfemur -53.1133 -4.4263 32.4332
rtibia 22.8295
rfoot -4.66937 5.61694
rtoes -58.9091
lfemur -52.362 9.04233 2.1484
ltibia 33.2602
lfoot -9.90139 4.56432
ltoes -63.0123
208
root 4.33726 18.0706 -12.8599 35.7186 -6.92084 -8.76946
lowerback 35.8303 -0.573939 -2.56222
upperback 10.8072 -2.12323 -4.68964
thorax -6.17218 -0.964819 -2.81014
lowerneck -11.2201 -6.20406 -10.444
upperneck 21.3599 -8.80457 10.746
head 9.52743 -3.86202 4.42507
rclavicle 7.31528e-014 4.13472e-014
rhumerus -20.1934 11.7319 -62.8901
rradius 117.332
rwrist 3.00254
rhand -39.5432 16.3958
rfingers 7.12502
rthumb -12.5274 -13.2087
lclavicle 7.31528e-014 4.13472e-014
lhumerus 9.23133 -46.3036 82.1272
lradius 102.081
lwrist 16.6996
lhand -19.1225 61.5767
lfingers 7.12502
lthumb -172.813 -271.435
rfemur -54.0566 -4.35513 32.689
rtibia 22.7999
rfoot -4.43007 5.55776
rtoes -58.8547
lfemur -53.4413 9.42719 2.10664
ltibia 33.2575
lfoot -9.83902 4.36707
ltoes -63.0849
209
root 4.35312 18.0596 -12.8839 36.4657 -6.52246 -8.8915
lowerback 36.6269 -0.554809 -2.98414
upperback 10.8558 -2.27094 -4.6909
thorax -6.24975 -1.02952 -2.56228
lowerneck -10.7006 -6.39226 -10.5905
upperneck 20.9668 -9.13499 11.1506
head 9.36056 -4.00921 4.5531
rclavicle -4.77083e-014 -2.78299e-015
rhumerus -20.4094 11.4621 -61.7826
rradius 118.179
rwrist 1.94646
rhand -40.5607 16.895
rfingers 7.12502
rthumb -13.5083 -12.6469
lclavicle -4.77083e-014 -2.78299e-015
lhumerus 11.2757 -47.6596 81.8569
lradius 102.327
lwrist 16.5418
lhand -19.3105 61.8944
lfingers 7.12502
lthumb -172.995 -271.759
rfemur -54.9291 -4.25716 32.9172
rtibia 22.7478
rfoot -4.18963 5.42376
rtoes -58.9289
lfemur -54.466 9.73689 2.12399
ltibia 33.2203
lfoot -9.74943 4.10677
ltoes -63.06
210
root 4.37341 18.0507 -12.9045 37.1076 -6.08296 -8.92236
lowerback 37.2689 -0.768304 -3.17213
upperback 11.1057 -2.62128 -4.86189
thorax -6.20446 -1.18484 -2.51501
lowerneck -10.269 -6.6315 -10.9759
upperneck 20.7179 -9.51951 11.6714
head 9.28914 -4.1871 4.7569
rclavicle 3.49861e-014 2.42517e-014
rhumerus -20.3831 11.4899 -60.7842
rradius 118.884
rwrist 1.33204
rhand -41.9189 17.0236
rfingers 7.12502
rthumb -14.817 -12.4267
lclavicle 3.49861e-014 2.42517e-014
lhumerus 13.3261 -48.8 81.1166
lradius 102.82
lwrist 17.198
lhand -19.6507 63.0228
lfingers 7.12502
lthumb -173.323 -272.898
rfemur -55.7035 -4.34163 33.1301
rtibia 22.6553
rfoot -3.99278 5.34938
rtoes -58.889
lfemur -55.4017 9.85645 2.11539
ltibia 33.1631
lfoot -9.69396 3.94932
ltoes -63.1465
211
root 4.39513 18.0441 -12.9241 37.6453 -5.68832 -8.95633
lowerback 37.8783 -1.11012 -3.26589
upperback 11.4018 -3.09813 -5.13299
thorax -6.10942 -1.39542 -2.57527
lowerneck -10.1431 -6.68897 -11.3356
upperneck 20.5133 -9.62622 12.1327
head 9.25242 -4.23072 4.9664
rclavicle 3.18055e-015 -4.09496e-014
rhumerus -20.2531 11.755 -59.8487
rradius 119.581
rwrist 0.387201
rhand -42.9048 17.538
rfingers 7.12502
rthumb -15.7667 -11.8399
lclavicle 3.18055e-015 -4.09496e-014
lhumerus 15.1289 -49.6653 80.0539
lradius 103.617
lwrist 18.7373
lhand -18.9525 63.3891
lfingers 7.12502
lthumb -172.649 -273.241
rfemur -56.3507 -4.59103 33.4793
rtibia 22.5052
rfoot -3.83453 5.50081
rtoes -58.7437
lfemur -56.1975 9.94782 2.10401
ltibia 33.1111
lfoot -9.69152 3.91404
ltoes -63.3747
212
root 4.41699 18.0395 -12.9409 38.0994 -5.30172 -9.08988
lowerback 38.4725 -1.44701 -3.2859
upperback 11.6948 -3.54174 -5.40517
thorax -6.01511 -1.58936 -2.68525
lowerneck -9.99657 -6.75601 -11.6692
upperneck 20.3757 -9.75407 12.573
head 9.2365 -4.28475 5.16345
rclavicle -6.36111e-015 7.95139e-015
rhumerus -20.1104 11.9149 -58.9488
rradius 120.243
rwrist -0.922902
rhand -43.472 18.4021
rfingers 7.12502
rthumb -16.3129 -10.9317
lclavicle -6.36111e-015 7.95139e-015
lhumerus 16.8079 -50.4845 78.8691
lradius 104.174
lwrist 20.538
lhand -18.8934 63.6553
lfingers 7.12502
lthumb -172.592 -273.506
rfemur -56.8384 -4.85539 33.9764
rtibia 22.2829
rfoot -3.69235 5.73888
rtoes -58.686
lfemur -56.853 10.0021 2.25411
ltibia 33.0662
lfoot -9.67292 3.8839
ltoes -63.4626
213
root 4.43831 18.0358 -12.9561 38.5134 -4.90853 -9.27763
lowerback 39.106 -1.77171 -3.28318
upperback 11.9332 -3.96277 -5.64387
thorax -5.99093 -1.77142 -2.77594
lowerneck -9.90384 -6.8023 -11.9629
upperneck 20.2891 -9.84444 12.9389
head 9.23792 -4.32284 5.33249
rclavicle 0 4.23411e-014
rhumerus -19.9032 12.1004 -58.159
rradius 120.764
rwrist -2.09572
rhand -44.2687 19.2626
rfingers 7.12502
rthumb -17.0799 -10.0066
lclavicle 0 4.23411e-014
lhumerus 18.4482 -51.2795 77.6403
lradius 104.65
lwrist 21.9015
lhand -19.5316 64.1917
lfingers 7.12502
lthumb -173.208 -274.063
rfemur -57.1999 -4.95498 34.3854
rtibia 21.987
rfoot -3.51398 5.79197
rtoes -58.7445
lfemur -57.4258 9.98298 2.55026
ltibia 33.0191
lfoot -9.65253 3.80118
ltoes -63.3589
214
root 4.45829 18.0328 -12.9703 38.9369 -4.58988 -9.48304
lowerback 39.6553 -2.08001 -3.30701
upperback 12.162 -4.37193 -5.9143
thorax -5.95013 -1.94749 -2.89018
lowerneck -9.7813 -6.79611 -12.1889
upperneck 20.0603 -9.84452 13.2133
head 9.16329 -4.3249 5.46673
rclavicle -9.54166e-015 -2.60408e-014
rhumerus -19.623 12.3387 -57.5502
rradius 121.182
rwrist -3.10201
rhand -45.0532 20.1742
rfingers 7.12502
rthumb -17.8348 -9.02795
lclavicle -9.54166e-015 -2.60408e-014
lhumerus 20.0148 -52.0444 76.2068
lradius 105.074
lwrist 22.8159
lhand -19.6909 64.8565
lfingers 7.12502
lthumb -173.362 -274.732
rfemur -57.5265 -4.94379 34.722
rtibia 21.6405
rfoot -3.30764 5.81222
rtoes -58.7478
lfemur -57.9174 9.88241 2.96212
ltibia 32.9656
lfoot -9.69113 3.85187
ltoes -63.0914
215
root 4.47502 18.0303 -12.984 39.3658 -4.36993 -9.7043
lowerback 40.0745 -2.31716 -3.36091
upperback 12.3984 -4.69925 -6.17346
thorax -5.85349 -2.08818 -3.00997
lowerneck -9.64354 -6.82454 -12.4684
upperneck 19.8068 -9.86583 13.4214
head 9.08032 -4.34662 5.58308
rclavicle 9.54166e-015 5.56597e-015
rhumerus -19.4261 12.5235 -56.9573
rradius 121.577
rwrist -4.09456
rhand -45.7281 21.0438
rfingers 7.12502
rthumb -18.4841 -8.09803
lclavicle 9.54166e-015 5.56597e-015
lhumerus 21.6129 -52.7298 74.7174
lradius 105.404
lwrist 23.6065
lhand -19.823 65.5137
lfingers 7.12502
lthumb -173.489 -275.394
rfemur -57.8465 -4.86805 35.0434
rtibia 21.2922
rfoot -3.1071 5.87396
rtoes -58.6772
lfemur -58.3312 9.75931 3.43802
ltibia 32.905
lfoot -9.78623 4.11305
ltoes -62.7259
